<?xml version="1.0" encoding="utf-8"?>
<!-- Generator: Adobe Illustrator 17.0.2, SVG Export Plug-In . SVG Version: 6.00 Build 0)  -->
<!DOCTYPE svg PUBLIC "-//W3C//DTD SVG 1.1//EN" "http://www.w3.org/Graphics/SVG/1.1/DTD/svg11.dtd">
<svg version="1.1" id="Layer_1" xmlns="http://www.w3.org/2000/svg" xmlns:xlink="http://www.w3.org/1999/xlink" x="0px" y="0px"
	 width="450px" height="450px" viewBox="0 0 450 450" enable-background="new 0 0 450 450" xml:space="preserve">
<g>
	<path fill="#3698B0" d="M27.821,86.891V60.709h8.051c3.12,0,5.558,0.867,7.315,2.602c1.756,1.735,2.634,4.042,2.634,6.922v7.266
		c0,2.858-0.884,5.138-2.651,6.84s-4.211,2.553-7.331,2.553H27.821z M29.457,85.418h6.382c2.815,0,4.909-0.731,6.284-2.193
		c1.375-1.461,2.062-3.371,2.062-5.727v-7.266c0-2.334-0.688-4.26-2.062-5.776c-1.375-1.516-3.469-2.274-6.284-2.274h-6.382V85.418z
		"/>
	<path fill="#3698B0" d="M89.904,87.087c-2.618,0-4.686-0.479-6.202-1.44c-1.517-0.96-2.58-2.465-3.191-4.516l1.407-0.557
		c0.633,1.964,1.565,3.295,2.798,3.993c1.232,0.699,2.973,1.047,5.22,1.047c2.487,0,4.341-0.442,5.563-1.326
		c1.222-0.883,1.833-2.23,1.833-4.042c0-1.833-0.507-3.153-1.521-3.96c-1.015-0.807-2.984-1.483-5.908-2.029
		c-3.36-0.589-5.678-1.412-6.954-2.471c-1.276-1.058-1.915-2.602-1.915-4.631c0-2.029,0.747-3.633,2.242-4.811
		c1.494-1.178,3.583-1.767,6.267-1.767c2.116,0,3.862,0.431,5.236,1.292c1.375,0.862,2.476,2.209,3.306,4.042l-1.407,0.589
		c-0.786-1.658-1.751-2.814-2.896-3.469c-1.146-0.654-2.559-0.981-4.238-0.981c-2.335,0-4.074,0.409-5.22,1.227
		c-1.146,0.818-1.718,2.067-1.718,3.748c0,1.702,0.518,2.94,1.555,3.714c1.036,0.775,3.048,1.435,6.038,1.98
		c3.316,0.589,5.591,1.435,6.824,2.536c1.232,1.102,1.849,2.766,1.849,4.991c0,2.073-0.774,3.731-2.323,4.975
		C94.998,86.466,92.784,87.087,89.904,87.087z"/>
	<path fill="#3698B0" d="M108.492,86.891v-1.473h6.545V62.182h-6.545v-1.473h14.728v1.473h-6.545v23.236h6.545v1.473H108.492z"/>
	<path fill="#3698B0" d="M142.856,87.218c-3.295,0-5.728-0.834-7.298-2.503s-2.356-3.965-2.356-6.889v-7.92
		c0-2.967,0.736-5.296,2.209-6.987c1.473-1.69,3.856-2.537,7.151-2.537c2.989,0,5.138,0.595,6.447,1.784
		c1.309,1.189,2.04,3.082,2.193,5.678l-1.636,0.196c-0.175-2.116-0.699-3.676-1.571-4.68c-0.873-1.003-2.695-1.505-5.466-1.505
		c-2.662,0-4.609,0.638-5.842,1.915c-1.233,1.276-1.849,3.322-1.849,6.136v7.92c0,2.771,0.638,4.784,1.915,6.038
		c1.276,1.255,3.311,1.882,6.104,1.882c2.684,0,4.582-0.73,5.694-2.193c1.113-1.461,1.669-3.949,1.669-7.461h-8.018v-1.473h9.655
		v1.44c0,3.644-0.677,6.415-2.029,8.312C148.473,86.27,146.15,87.218,142.856,87.218z"/>
	<path fill="#3698B0" d="M177.284,86.891l-14.531-23.4v23.4h-1.571V60.709h1.702l14.727,23.792V60.709h1.571v26.182H177.284z"/>
	<path fill="#3698B0" d="M227.225,86.891l-5.957-18l-6.021,18h-1.636l-5.171-26.182h1.505l4.712,23.792l5.793-17.575h1.734
		l5.728,17.378l4.516-23.596h1.604l-5.171,26.182H227.225z"/>
	<path fill="#3698B0" d="M271.472,86.891h-1.636V60.709h10.669c2.465,0,4.304,0.589,5.515,1.767s1.816,2.891,1.816,5.138v2.095
		c0,2.094-0.523,3.726-1.571,4.893c-1.047,1.167-2.618,1.828-4.713,1.98l6.742,10.309h-1.898l-6.709-10.276h-8.215V86.891z
		 M271.472,75.142h9c2.029,0,3.491-0.425,4.386-1.276c0.895-0.851,1.342-2.258,1.342-4.222v-1.898c0-1.963-0.447-3.382-1.342-4.254
		c-0.895-0.873-2.356-1.309-4.386-1.309h-9V75.142z"/>
	<path fill="#3698B0" d="M299.453,73.8v13.091h-1.636V60.709h1.636v11.618h2.75l10.112-11.618h2.16l-10.669,12.174l10.571,14.007
		h-2.062L302.53,73.8H299.453z"/>
	<path fill="#3698B0" d="M331.919,87.087c-2.618,0-4.686-0.479-6.202-1.44c-1.517-0.96-2.58-2.465-3.191-4.516l1.407-0.557
		c0.633,1.964,1.565,3.295,2.798,3.993c1.232,0.699,2.973,1.047,5.22,1.047c2.487,0,4.341-0.442,5.563-1.326
		c1.222-0.883,1.833-2.23,1.833-4.042c0-1.833-0.507-3.153-1.521-3.96c-1.015-0.807-2.984-1.483-5.908-2.029
		c-3.36-0.589-5.678-1.412-6.954-2.471c-1.276-1.058-1.915-2.602-1.915-4.631c0-2.029,0.747-3.633,2.242-4.811
		c1.494-1.178,3.583-1.767,6.267-1.767c2.116,0,3.862,0.431,5.236,1.292c1.375,0.862,2.476,2.209,3.306,4.042l-1.407,0.589
		c-0.786-1.658-1.751-2.814-2.896-3.469c-1.146-0.654-2.559-0.981-4.238-0.981c-2.335,0-4.074,0.409-5.22,1.227
		c-1.146,0.818-1.718,2.067-1.718,3.748c0,1.702,0.518,2.94,1.555,3.714c1.036,0.775,3.048,1.435,6.038,1.98
		c3.316,0.589,5.591,1.435,6.824,2.536c1.232,1.102,1.849,2.766,1.849,4.991c0,2.073-0.774,3.731-2.323,4.975
		C337.013,86.466,334.799,87.087,331.919,87.087z"/>
	<path fill="#3698B0" d="M350.508,86.891V60.709h1.636v11.127h14.728V60.709h1.636v26.182h-1.636V73.309h-14.728v13.582H350.508z"/>
	<path fill="#3698B0" d="M387.489,87.218c-2.989,0-5.236-0.763-6.742-2.291c-1.505-1.527-2.258-3.895-2.258-7.102v-7.92
		c0-3.251,0.758-5.651,2.274-7.2c1.517-1.549,3.769-2.324,6.758-2.324c2.967,0,5.204,0.775,6.709,2.324
		c1.506,1.549,2.258,3.949,2.258,7.2v7.92c0,3.207-0.752,5.575-2.258,7.102C392.725,86.455,390.478,87.218,387.489,87.218z
		 M387.489,85.746c2.662,0,4.554-0.61,5.678-1.833c1.124-1.222,1.686-3.251,1.686-6.087v-7.92c0-2.88-0.562-4.942-1.686-6.186
		c-1.124-1.244-3.017-1.865-5.678-1.865c-2.662,0-4.555,0.622-5.678,1.865c-1.124,1.244-1.686,3.306-1.686,6.186v7.92
		c0,2.836,0.562,4.866,1.686,6.087C382.934,85.135,384.827,85.746,387.489,85.746z"/>
	<path fill="#3698B0" d="M406.47,86.891V60.709h8.378c2.378,0,4.194,0.589,5.449,1.767c1.254,1.178,1.882,2.891,1.882,5.138v3.208
		c0,2.247-0.627,3.96-1.882,5.138c-1.255,1.178-3.082,1.767-5.481,1.767h-6.709v9.164H406.47z M408.107,76.255h6.709
		c2.029,0,3.49-0.426,4.385-1.276c0.895-0.851,1.342-2.258,1.342-4.222v-3.011c0-1.963-0.447-3.382-1.342-4.254
		c-0.895-0.873-2.356-1.309-4.385-1.309h-6.709V76.255z"/>
	<path fill="#3698B0" d="M89.904,130.288c-2.618,0-4.686-0.479-6.202-1.44c-1.517-0.96-2.58-2.465-3.191-4.516l1.407-0.557
		c0.633,1.964,1.565,3.295,2.798,3.993c1.232,0.699,2.973,1.047,5.22,1.047c2.487,0,4.341-0.442,5.563-1.326
		c1.222-0.883,1.833-2.23,1.833-4.042c0-1.833-0.507-3.153-1.521-3.96c-1.015-0.807-2.984-1.483-5.908-2.029
		c-3.36-0.589-5.678-1.412-6.954-2.471c-1.276-1.058-1.915-2.602-1.915-4.631c0-2.029,0.747-3.633,2.242-4.811
		c1.494-1.178,3.583-1.767,6.267-1.767c2.116,0,3.862,0.431,5.236,1.292c1.375,0.862,2.476,2.209,3.306,4.042l-1.407,0.589
		c-0.786-1.658-1.751-2.814-2.896-3.469c-1.146-0.654-2.559-0.981-4.238-0.981c-2.335,0-4.074,0.409-5.22,1.227
		c-1.146,0.818-1.718,2.067-1.718,3.748c0,1.702,0.518,2.94,1.555,3.714c1.036,0.775,3.048,1.435,6.038,1.98
		c3.316,0.589,5.591,1.435,6.824,2.536c1.232,1.102,1.849,2.766,1.849,4.991c0,2.073-0.774,3.731-2.323,4.975
		C94.998,129.666,92.784,130.288,89.904,130.288z"/>
	<path fill="#3698B0" d="M142.856,130.418c-3.295,0-5.728-0.834-7.298-2.503s-2.356-3.965-2.356-6.889v-7.92
		c0-2.967,0.736-5.296,2.209-6.987c1.473-1.69,3.856-2.537,7.151-2.537c2.989,0,5.138,0.595,6.447,1.784
		c1.309,1.189,2.04,3.082,2.193,5.678l-1.636,0.196c-0.175-2.116-0.699-3.676-1.571-4.68c-0.873-1.003-2.695-1.505-5.466-1.505
		c-2.662,0-4.609,0.638-5.842,1.915c-1.233,1.276-1.849,3.322-1.849,6.136v7.92c0,2.771,0.638,4.784,1.915,6.038
		c1.276,1.255,3.311,1.882,6.104,1.882c2.684,0,4.582-0.73,5.694-2.193c1.113-1.461,1.669-3.949,1.669-7.461h-8.018v-1.473h9.655
		v1.44c0,3.644-0.677,6.415-2.029,8.312C148.473,129.47,146.15,130.418,142.856,130.418z"/>
	<path fill="#3698B0" d="M177.284,130.091l-14.531-23.4v23.4h-1.571V103.91h1.702l14.727,23.792V103.91h1.571v26.182H177.284z"/>
	<path fill="#3698B0" d="M250.854,130.418c-2.989,0-5.236-0.763-6.742-2.291c-1.505-1.527-2.258-3.895-2.258-7.102v-7.92
		c0-3.251,0.758-5.651,2.274-7.2c1.517-1.549,3.769-2.324,6.758-2.324c2.967,0,5.204,0.775,6.709,2.324
		c1.506,1.549,2.258,3.949,2.258,7.2v7.92c0,3.207-0.752,5.575-2.258,7.102C256.091,129.655,253.843,130.418,250.854,130.418z
		 M250.854,128.946c2.662,0,4.554-0.61,5.678-1.833c1.124-1.222,1.686-3.251,1.686-6.087v-7.92c0-2.88-0.562-4.942-1.686-6.186
		c-1.124-1.244-3.017-1.865-5.678-1.865c-2.662,0-4.555,0.622-5.678,1.865c-1.124,1.244-1.686,3.306-1.686,6.186v7.92
		c0,2.836,0.562,4.866,1.686,6.087C246.3,128.335,248.192,128.946,250.854,128.946z"/>
	<path fill="#3698B0" d="M271.472,130.091h-1.636V103.91h10.669c2.465,0,4.304,0.589,5.515,1.767s1.816,2.891,1.816,5.138v2.095
		c0,2.094-0.523,3.726-1.571,4.893c-1.047,1.167-2.618,1.828-4.713,1.98l6.742,10.309h-1.898l-6.709-10.276h-8.215V130.091z
		 M271.472,118.342h9c2.029,0,3.491-0.425,4.386-1.276c0.895-0.851,1.342-2.258,1.342-4.222v-1.898c0-1.963-0.447-3.382-1.342-4.254
		c-0.895-0.873-2.356-1.309-4.386-1.309h-9V118.342z"/>
	<path fill="#3698B0" d="M331.919,130.288c-2.618,0-4.686-0.479-6.202-1.44c-1.517-0.96-2.58-2.465-3.191-4.516l1.407-0.557
		c0.633,1.964,1.565,3.295,2.798,3.993c1.232,0.699,2.973,1.047,5.22,1.047c2.487,0,4.341-0.442,5.563-1.326
		c1.222-0.883,1.833-2.23,1.833-4.042c0-1.833-0.507-3.153-1.521-3.96c-1.015-0.807-2.984-1.483-5.908-2.029
		c-3.36-0.589-5.678-1.412-6.954-2.471c-1.276-1.058-1.915-2.602-1.915-4.631c0-2.029,0.747-3.633,2.242-4.811
		c1.494-1.178,3.583-1.767,6.267-1.767c2.116,0,3.862,0.431,5.236,1.292c1.375,0.862,2.476,2.209,3.306,4.042l-1.407,0.589
		c-0.786-1.658-1.751-2.814-2.896-3.469c-1.146-0.654-2.559-0.981-4.238-0.981c-2.335,0-4.074,0.409-5.22,1.227
		c-1.146,0.818-1.718,2.067-1.718,3.748c0,1.702,0.518,2.94,1.555,3.714c1.036,0.775,3.048,1.435,6.038,1.98
		c3.316,0.589,5.591,1.435,6.824,2.536c1.232,1.102,1.849,2.766,1.849,4.991c0,2.073-0.774,3.731-2.323,4.975
		C337.013,129.666,334.799,130.288,331.919,130.288z"/>
	<path fill="#3698B0" d="M387.489,130.418c-2.989,0-5.236-0.763-6.742-2.291c-1.505-1.527-2.258-3.895-2.258-7.102v-7.92
		c0-3.251,0.758-5.651,2.274-7.2c1.517-1.549,3.769-2.324,6.758-2.324c2.967,0,5.204,0.775,6.709,2.324
		c1.506,1.549,2.258,3.949,2.258,7.2v7.92c0,3.207-0.752,5.575-2.258,7.102C392.725,129.655,390.478,130.418,387.489,130.418z
		 M387.489,128.946c2.662,0,4.554-0.61,5.678-1.833c1.124-1.222,1.686-3.251,1.686-6.087v-7.92c0-2.88-0.562-4.942-1.686-6.186
		c-1.124-1.244-3.017-1.865-5.678-1.865c-2.662,0-4.555,0.622-5.678,1.865c-1.124,1.244-1.686,3.306-1.686,6.186v7.92
		c0,2.836,0.562,4.866,1.686,6.087C382.934,128.335,384.827,128.946,387.489,128.946z"/>
	<path fill="#3698B0" d="M27.821,173.291v-26.182h8.051c3.12,0,5.558,0.867,7.315,2.602c1.756,1.735,2.634,4.042,2.634,6.922v7.266
		c0,2.858-0.884,5.138-2.651,6.84s-4.211,2.553-7.331,2.553H27.821z M29.457,171.818h6.382c2.815,0,4.909-0.731,6.284-2.193
		c1.375-1.461,2.062-3.371,2.062-5.727v-7.266c0-2.334-0.688-4.26-2.062-5.776c-1.375-1.516-3.469-2.274-6.284-2.274h-6.382V171.818
		z"/>
	<path fill="#3698B0" d="M55.802,173.291v-26.182h15.382v1.473H57.438v9.654h12.109v1.473H57.438v12.109h13.746v1.473H55.802z"/>
	<path fill="#3698B0" d="M108.492,173.291v-1.473h6.545v-23.236h-6.545v-1.473h14.728v1.473h-6.545v23.236h6.545v1.473H108.492z"/>
	<path fill="#3698B0" d="M250.854,173.618c-2.989,0-5.236-0.763-6.742-2.291c-1.505-1.527-2.258-3.895-2.258-7.102v-7.92
		c0-3.251,0.758-5.651,2.274-7.2c1.517-1.549,3.769-2.324,6.758-2.324c2.967,0,5.204,0.775,6.709,2.324
		c1.506,1.549,2.258,3.949,2.258,7.2v7.92c0,3.207-0.752,5.575-2.258,7.102C256.091,172.855,253.843,173.618,250.854,173.618z
		 M250.854,172.146c2.662,0,4.554-0.61,5.678-1.833c1.124-1.222,1.686-3.251,1.686-6.087v-7.92c0-2.88-0.562-4.942-1.686-6.186
		c-1.124-1.244-3.017-1.865-5.678-1.865c-2.662,0-4.555,0.622-5.678,1.865c-1.124,1.244-1.686,3.306-1.686,6.186v7.92
		c0,2.836,0.562,4.866,1.686,6.087C246.3,171.535,248.192,172.146,250.854,172.146z"/>
	<path fill="#3698B0" d="M271.472,173.291h-1.636v-26.182h10.669c2.465,0,4.304,0.589,5.515,1.767s1.816,2.891,1.816,5.138v2.095
		c0,2.094-0.523,3.726-1.571,4.893c-1.047,1.167-2.618,1.828-4.713,1.98l6.742,10.309h-1.898l-6.709-10.276h-8.215V173.291z
		 M271.472,161.542h9c2.029,0,3.491-0.425,4.386-1.276c0.895-0.851,1.342-2.258,1.342-4.222v-1.898c0-1.963-0.447-3.382-1.342-4.254
		c-0.895-0.873-2.356-1.309-4.386-1.309h-9V161.542z"/>
	<path fill="#3698B0" d="M299.453,160.2v13.091h-1.636v-26.182h1.636v11.618h2.75l10.112-11.618h2.16l-10.669,12.174l10.571,14.007
		h-2.062L302.53,160.2H299.453z"/>
	<path fill="#3698B0" d="M350.508,173.291v-26.182h1.636v11.127h14.728v-11.127h1.636v26.182h-1.636v-13.582h-14.728v13.582H350.508
		z"/>
	<path fill="#3698B0" d="M406.47,173.291v-26.182h8.378c2.378,0,4.194,0.589,5.449,1.767c1.254,1.178,1.882,2.891,1.882,5.138v3.208
		c0,2.247-0.627,3.96-1.882,5.138c-1.255,1.178-3.082,1.767-5.481,1.767h-6.709v9.164H406.47z M408.107,162.655h6.709
		c2.029,0,3.49-0.426,4.385-1.276c0.895-0.851,1.342-2.258,1.342-4.222v-3.011c0-1.963-0.447-3.382-1.342-4.254
		c-0.895-0.873-2.356-1.309-4.385-1.309h-6.709V162.655z"/>
	<path fill="#3698B0" d="M27.821,216.491V190.31h8.051c3.12,0,5.558,0.867,7.315,2.602c1.756,1.735,2.634,4.042,2.634,6.922v7.266
		c0,2.858-0.884,5.138-2.651,6.84s-4.211,2.553-7.331,2.553H27.821z M29.457,215.019h6.382c2.815,0,4.909-0.731,6.284-2.193
		c1.375-1.461,2.062-3.371,2.062-5.727v-7.266c0-2.334-0.688-4.26-2.062-5.776c-1.375-1.516-3.469-2.274-6.284-2.274h-6.382V215.019
		z"/>
	<path fill="#3698B0" d="M55.802,216.491V190.31h15.382v1.473H57.438v9.654h12.109v1.473H57.438v12.109h13.746v1.473H55.802z"/>
	<path fill="#3698B0" d="M89.904,216.688c-2.618,0-4.686-0.479-6.202-1.44c-1.517-0.96-2.58-2.465-3.191-4.516l1.407-0.557
		c0.633,1.964,1.565,3.295,2.798,3.993c1.232,0.699,2.973,1.047,5.22,1.047c2.487,0,4.341-0.442,5.563-1.326
		c1.222-0.883,1.833-2.23,1.833-4.042c0-1.833-0.507-3.153-1.521-3.96c-1.015-0.807-2.984-1.483-5.908-2.029
		c-3.36-0.589-5.678-1.412-6.954-2.471c-1.276-1.058-1.915-2.602-1.915-4.631c0-2.029,0.747-3.633,2.242-4.811
		c1.494-1.178,3.583-1.767,6.267-1.767c2.116,0,3.862,0.431,5.236,1.292c1.375,0.862,2.476,2.209,3.306,4.042l-1.407,0.589
		c-0.786-1.658-1.751-2.814-2.896-3.469c-1.146-0.654-2.559-0.981-4.238-0.981c-2.335,0-4.074,0.409-5.22,1.227
		c-1.146,0.818-1.718,2.067-1.718,3.748c0,1.702,0.518,2.94,1.555,3.714c1.036,0.775,3.048,1.435,6.038,1.98
		c3.316,0.589,5.591,1.435,6.824,2.536c1.232,1.102,1.849,2.766,1.849,4.991c0,2.073-0.774,3.731-2.323,4.975
		C94.998,216.066,92.784,216.688,89.904,216.688z"/>
	<path fill="#3698B0" d="M108.492,216.491v-1.473h6.545v-23.236h-6.545v-1.473h14.728v1.473h-6.545v23.236h6.545v1.473H108.492z"/>
	<path fill="#3698B0" d="M142.856,216.818c-3.295,0-5.728-0.834-7.298-2.503s-2.356-3.965-2.356-6.889v-7.92
		c0-2.967,0.736-5.296,2.209-6.987c1.473-1.69,3.856-2.537,7.151-2.537c2.989,0,5.138,0.595,6.447,1.784
		c1.309,1.189,2.04,3.082,2.193,5.678l-1.636,0.196c-0.175-2.116-0.699-3.676-1.571-4.68c-0.873-1.003-2.695-1.505-5.466-1.505
		c-2.662,0-4.609,0.638-5.842,1.915c-1.233,1.276-1.849,3.322-1.849,6.136v7.92c0,2.771,0.638,4.784,1.915,6.038
		c1.276,1.255,3.311,1.882,6.104,1.882c2.684,0,4.582-0.73,5.694-2.193c1.113-1.461,1.669-3.949,1.669-7.461h-8.018v-1.473h9.655
		v1.44c0,3.644-0.677,6.415-2.029,8.312C148.473,215.87,146.15,216.818,142.856,216.818z"/>
	<path fill="#3698B0" d="M227.225,216.491l-5.957-18l-6.021,18h-1.636l-5.171-26.182h1.505l4.712,23.792l5.793-17.575h1.734
		l5.728,17.378l4.516-23.596h1.604l-5.171,26.182H227.225z"/>
	<path fill="#3698B0" d="M250.854,216.818c-2.989,0-5.236-0.763-6.742-2.291c-1.505-1.527-2.258-3.895-2.258-7.102v-7.92
		c0-3.251,0.758-5.651,2.274-7.2c1.517-1.549,3.769-2.324,6.758-2.324c2.967,0,5.204,0.775,6.709,2.324
		c1.506,1.549,2.258,3.949,2.258,7.2v7.92c0,3.207-0.752,5.575-2.258,7.102C256.091,216.055,253.843,216.818,250.854,216.818z
		 M250.854,215.346c2.662,0,4.554-0.61,5.678-1.833c1.124-1.222,1.686-3.251,1.686-6.087v-7.92c0-2.88-0.562-4.942-1.686-6.186
		c-1.124-1.244-3.017-1.865-5.678-1.865c-2.662,0-4.555,0.622-5.678,1.865c-1.124,1.244-1.686,3.306-1.686,6.186v7.92
		c0,2.836,0.562,4.866,1.686,6.087C246.3,214.735,248.192,215.346,250.854,215.346z"/>
	<path fill="#3698B0" d="M299.453,203.4v13.091h-1.636V190.31h1.636v11.618h2.75l10.112-11.618h2.16l-10.669,12.174l10.571,14.007
		h-2.062L302.53,203.4H299.453z"/>
	<path fill="#3698B0" d="M331.919,216.688c-2.618,0-4.686-0.479-6.202-1.44c-1.517-0.96-2.58-2.465-3.191-4.516l1.407-0.557
		c0.633,1.964,1.565,3.295,2.798,3.993c1.232,0.699,2.973,1.047,5.22,1.047c2.487,0,4.341-0.442,5.563-1.326
		c1.222-0.883,1.833-2.23,1.833-4.042c0-1.833-0.507-3.153-1.521-3.96c-1.015-0.807-2.984-1.483-5.908-2.029
		c-3.36-0.589-5.678-1.412-6.954-2.471c-1.276-1.058-1.915-2.602-1.915-4.631c0-2.029,0.747-3.633,2.242-4.811
		c1.494-1.178,3.583-1.767,6.267-1.767c2.116,0,3.862,0.431,5.236,1.292c1.375,0.862,2.476,2.209,3.306,4.042l-1.407,0.589
		c-0.786-1.658-1.751-2.814-2.896-3.469c-1.146-0.654-2.559-0.981-4.238-0.981c-2.335,0-4.074,0.409-5.22,1.227
		c-1.146,0.818-1.718,2.067-1.718,3.748c0,1.702,0.518,2.94,1.555,3.714c1.036,0.775,3.048,1.435,6.038,1.98
		c3.316,0.589,5.591,1.435,6.824,2.536c1.232,1.102,1.849,2.766,1.849,4.991c0,2.073-0.774,3.731-2.323,4.975
		C337.013,216.066,334.799,216.688,331.919,216.688z"/>
	<path fill="#3698B0" d="M350.508,216.491V190.31h1.636v11.127h14.728V190.31h1.636v26.182h-1.636v-13.582h-14.728v13.582H350.508z"
		/>
	<path fill="#3698B0" d="M406.47,216.491V190.31h8.378c2.378,0,4.194,0.589,5.449,1.767c1.254,1.178,1.882,2.891,1.882,5.138v3.208
		c0,2.247-0.627,3.96-1.882,5.138c-1.255,1.178-3.082,1.767-5.481,1.767h-6.709v9.164H406.47z M408.107,205.855h6.709
		c2.029,0,3.49-0.426,4.385-1.276c0.895-0.851,1.342-2.258,1.342-4.222v-3.011c0-1.963-0.447-3.382-1.342-4.254
		c-0.895-0.873-2.356-1.309-4.385-1.309h-6.709V205.855z"/>
	<path fill="#3698B0" d="M55.802,259.691v-26.182h15.382v1.473H57.438v9.654h12.109v1.473H57.438v12.109h13.746v1.473H55.802z"/>
	<path fill="#3698B0" d="M89.904,259.887c-2.618,0-4.686-0.479-6.202-1.44c-1.517-0.96-2.58-2.465-3.191-4.516l1.407-0.557
		c0.633,1.964,1.565,3.295,2.798,3.993c1.232,0.699,2.973,1.047,5.22,1.047c2.487,0,4.341-0.442,5.563-1.326
		c1.222-0.883,1.833-2.23,1.833-4.042c0-1.833-0.507-3.153-1.521-3.96c-1.015-0.807-2.984-1.483-5.908-2.029
		c-3.36-0.589-5.678-1.412-6.954-2.471c-1.276-1.058-1.915-2.602-1.915-4.631c0-2.029,0.747-3.633,2.242-4.811
		c1.494-1.178,3.583-1.767,6.267-1.767c2.116,0,3.862,0.431,5.236,1.292c1.375,0.862,2.476,2.209,3.306,4.042l-1.407,0.589
		c-0.786-1.658-1.751-2.814-2.896-3.469c-1.146-0.654-2.559-0.981-4.238-0.981c-2.335,0-4.074,0.409-5.22,1.227
		c-1.146,0.818-1.718,2.067-1.718,3.748c0,1.702,0.518,2.94,1.555,3.714c1.036,0.775,3.048,1.435,6.038,1.98
		c3.316,0.589,5.591,1.435,6.824,2.536c1.232,1.102,1.849,2.766,1.849,4.991c0,2.073-0.774,3.731-2.323,4.975
		C94.998,259.266,92.784,259.887,89.904,259.887z"/>
	<path fill="#3698B0" d="M142.856,260.018c-3.295,0-5.728-0.834-7.298-2.503s-2.356-3.965-2.356-6.889v-7.92
		c0-2.967,0.736-5.296,2.209-6.987c1.473-1.69,3.856-2.537,7.151-2.537c2.989,0,5.138,0.595,6.447,1.784
		c1.309,1.189,2.04,3.082,2.193,5.678l-1.636,0.196c-0.175-2.116-0.699-3.676-1.571-4.68c-0.873-1.003-2.695-1.505-5.466-1.505
		c-2.662,0-4.609,0.638-5.842,1.915c-1.233,1.276-1.849,3.322-1.849,6.136v7.92c0,2.771,0.638,4.784,1.915,6.038
		c1.276,1.255,3.311,1.882,6.104,1.882c2.684,0,4.582-0.73,5.694-2.193c1.113-1.461,1.669-3.949,1.669-7.461h-8.018v-1.473h9.655
		v1.44c0,3.644-0.677,6.415-2.029,8.312C148.473,259.069,146.15,260.018,142.856,260.018z"/>
	<path fill="#3698B0" d="M271.472,259.691h-1.636v-26.182h10.669c2.465,0,4.304,0.589,5.515,1.767s1.816,2.891,1.816,5.138v2.095
		c0,2.094-0.523,3.726-1.571,4.893c-1.047,1.167-2.618,1.828-4.713,1.98l6.742,10.309h-1.898l-6.709-10.276h-8.215V259.691z
		 M271.472,247.942h9c2.029,0,3.491-0.425,4.386-1.276c0.895-0.851,1.342-2.258,1.342-4.222v-1.898c0-1.963-0.447-3.382-1.342-4.254
		c-0.895-0.873-2.356-1.309-4.386-1.309h-9V247.942z"/>
	<path fill="#3698B0" d="M350.508,259.691v-26.182h1.636v11.127h14.728v-11.127h1.636v26.182h-1.636v-13.582h-14.728v13.582H350.508
		z"/>
	<path fill="#3698B0" d="M387.489,260.018c-2.989,0-5.236-0.763-6.742-2.291c-1.505-1.527-2.258-3.895-2.258-7.102v-7.92
		c0-3.251,0.758-5.651,2.274-7.2c1.517-1.549,3.769-2.324,6.758-2.324c2.967,0,5.204,0.775,6.709,2.324
		c1.506,1.549,2.258,3.949,2.258,7.2v7.92c0,3.207-0.752,5.575-2.258,7.102C392.725,259.255,390.478,260.018,387.489,260.018z
		 M387.489,258.545c2.662,0,4.554-0.61,5.678-1.833c1.124-1.222,1.686-3.251,1.686-6.087v-7.92c0-2.88-0.562-4.942-1.686-6.186
		c-1.124-1.244-3.017-1.865-5.678-1.865c-2.662,0-4.555,0.622-5.678,1.865c-1.124,1.244-1.686,3.306-1.686,6.186v7.92
		c0,2.836,0.562,4.866,1.686,6.087C382.934,257.935,384.827,258.545,387.489,258.545z"/>
	<path fill="#3698B0" d="M27.821,302.891v-26.182h8.051c3.12,0,5.558,0.867,7.315,2.602c1.756,1.735,2.634,4.042,2.634,6.922v7.266
		c0,2.858-0.884,5.138-2.651,6.84s-4.211,2.553-7.331,2.553H27.821z M29.457,301.418h6.382c2.815,0,4.909-0.731,6.284-2.193
		c1.375-1.461,2.062-3.371,2.062-5.727v-7.266c0-2.334-0.688-4.26-2.062-5.776c-1.375-1.516-3.469-2.274-6.284-2.274h-6.382V301.418
		z"/>
	<path fill="#3698B0" d="M55.802,302.891v-26.182h15.382v1.473H57.438v9.654h12.109v1.473H57.438v12.109h13.746v1.473H55.802z"/>
	<path fill="#3698B0" d="M108.492,302.891v-1.473h6.545v-23.236h-6.545v-1.473h14.728v1.473h-6.545v23.236h6.545v1.473H108.492z"/>
	<path fill="#3698B0" d="M177.284,302.891l-14.531-23.4v23.4h-1.571v-26.182h1.702l14.727,23.792v-23.792h1.571v26.182H177.284z"/>
	<path fill="#3698B0" d="M227.225,302.891l-5.957-18l-6.021,18h-1.636l-5.171-26.182h1.505l4.712,23.792l5.793-17.575h1.734
		l5.728,17.378l4.516-23.596h1.604l-5.171,26.182H227.225z"/>
	<path fill="#3698B0" d="M250.854,303.218c-2.989,0-5.236-0.763-6.742-2.291c-1.505-1.527-2.258-3.895-2.258-7.102v-7.92
		c0-3.251,0.758-5.651,2.274-7.2c1.517-1.549,3.769-2.324,6.758-2.324c2.967,0,5.204,0.775,6.709,2.324
		c1.506,1.549,2.258,3.949,2.258,7.2v7.92c0,3.207-0.752,5.575-2.258,7.102C256.091,302.455,253.843,303.218,250.854,303.218z
		 M250.854,301.746c2.662,0,4.554-0.61,5.678-1.833c1.124-1.222,1.686-3.251,1.686-6.087v-7.92c0-2.88-0.562-4.942-1.686-6.186
		c-1.124-1.244-3.017-1.865-5.678-1.865c-2.662,0-4.555,0.622-5.678,1.865c-1.124,1.244-1.686,3.306-1.686,6.186v7.92
		c0,2.836,0.562,4.866,1.686,6.087C246.3,301.135,248.192,301.746,250.854,301.746z"/>
	<path fill="#3698B0" d="M271.472,302.891h-1.636v-26.182h10.669c2.465,0,4.304,0.589,5.515,1.767s1.816,2.891,1.816,5.138v2.095
		c0,2.094-0.523,3.726-1.571,4.893c-1.047,1.167-2.618,1.828-4.713,1.98l6.742,10.309h-1.898l-6.709-10.276h-8.215V302.891z
		 M271.472,291.142h9c2.029,0,3.491-0.425,4.386-1.276c0.895-0.851,1.342-2.258,1.342-4.222v-1.898c0-1.963-0.447-3.382-1.342-4.254
		c-0.895-0.873-2.356-1.309-4.386-1.309h-9V291.142z"/>
	<path fill="#3698B0" d="M299.453,289.8v13.091h-1.636v-26.182h1.636v11.618h2.75l10.112-11.618h2.16l-10.669,12.174l10.571,14.007
		h-2.062L302.53,289.8H299.453z"/>
	<path fill="#3698B0" d="M350.508,302.891v-26.182h1.636v11.127h14.728v-11.127h1.636v26.182h-1.636v-13.582h-14.728v13.582H350.508
		z"/>
	<path fill="#3698B0" d="M406.47,302.891v-26.182h8.378c2.378,0,4.194,0.589,5.449,1.767c1.254,1.178,1.882,2.891,1.882,5.138v3.208
		c0,2.247-0.627,3.96-1.882,5.138c-1.255,1.178-3.082,1.767-5.481,1.767h-6.709v9.164H406.47z M408.107,292.255h6.709
		c2.029,0,3.49-0.426,4.385-1.276c0.895-0.851,1.342-2.258,1.342-4.222v-3.011c0-1.963-0.447-3.382-1.342-4.254
		c-0.895-0.873-2.356-1.309-4.385-1.309h-6.709V292.255z"/>
	<path fill="#3698B0" d="M27.821,346.091V319.91h8.051c3.12,0,5.558,0.867,7.315,2.602c1.756,1.735,2.634,4.042,2.634,6.922v7.266
		c0,2.858-0.884,5.138-2.651,6.84s-4.211,2.553-7.331,2.553H27.821z M29.457,344.619h6.382c2.815,0,4.909-0.731,6.284-2.193
		c1.375-1.461,2.062-3.371,2.062-5.727v-7.266c0-2.334-0.688-4.26-2.062-5.776c-1.375-1.516-3.469-2.274-6.284-2.274h-6.382V344.619
		z"/>
	<path fill="#3698B0" d="M55.802,346.091V319.91h15.382v1.473H57.438v9.654h12.109v1.473H57.438v12.109h13.746v1.473H55.802z"/>
	<path fill="#3698B0" d="M89.904,346.288"/>
	<path fill="#3698B0" d="M123.22,344.619v1.473 M123.22,319.91v1.473"/>
	<path fill="#3698B0" d="M177.284,346.091l-14.531-23.4v23.4h-1.571V319.91h1.702l14.727,23.792V319.91h1.571v26.182H177.284z"/>
	<path fill="#3698B0" d="M227.225,346.091l-5.957-18l-6.021,18h-1.636l-5.171-26.182h1.505l4.712,23.792l5.793-17.575h1.734
		l5.728,17.378l4.516-23.596h1.604l-5.171,26.182H227.225z"/>
	<path fill="#3698B0" d="M331.919,346.288c-2.618,0-4.686-0.479-6.202-1.44c-1.517-0.96-2.58-2.465-3.191-4.516l1.407-0.557
		c0.633,1.964,1.565,3.295,2.798,3.993c1.232,0.699,2.973,1.047,5.22,1.047c2.487,0,4.341-0.442,5.563-1.326
		c1.222-0.883,1.833-2.23,1.833-4.042c0-1.833-0.507-3.153-1.521-3.96c-1.015-0.807-2.984-1.483-5.908-2.029
		c-3.36-0.589-5.678-1.412-6.954-2.471c-1.276-1.058-1.915-2.602-1.915-4.631c0-2.029,0.747-3.633,2.242-4.811
		c1.494-1.178,3.583-1.767,6.267-1.767c2.116,0,3.862,0.431,5.236,1.292c1.375,0.862,2.476,2.209,3.306,4.042l-1.407,0.589
		c-0.786-1.658-1.751-2.814-2.896-3.469c-1.146-0.654-2.559-0.981-4.238-0.981c-2.335,0-4.074,0.409-5.22,1.227
		c-1.146,0.818-1.718,2.067-1.718,3.748c0,1.702,0.518,2.94,1.555,3.714c1.036,0.775,3.048,1.435,6.038,1.98
		c3.316,0.589,5.591,1.435,6.824,2.536c1.232,1.102,1.849,2.766,1.849,4.991c0,2.073-0.774,3.731-2.323,4.975
		C337.013,345.666,334.799,346.288,331.919,346.288z"/>
	<path fill="#3698B0" d="M387.489,346.418c-2.989,0-5.236-0.763-6.742-2.291c-1.505-1.527-2.258-3.895-2.258-7.102v-7.92
		c0-3.251,0.758-5.651,2.274-7.2c1.517-1.549,3.769-2.324,6.758-2.324c2.967,0,5.204,0.775,6.709,2.324
		c1.506,1.549,2.258,3.949,2.258,7.2v7.92c0,3.207-0.752,5.575-2.258,7.102C392.725,345.655,390.478,346.418,387.489,346.418z
		 M387.489,344.946c2.662,0,4.554-0.61,5.678-1.833c1.124-1.222,1.686-3.251,1.686-6.087v-7.92c0-2.88-0.562-4.942-1.686-6.186
		c-1.124-1.244-3.017-1.865-5.678-1.865c-2.662,0-4.555,0.622-5.678,1.865c-1.124,1.244-1.686,3.306-1.686,6.186v7.92
		c0,2.836,0.562,4.866,1.686,6.087C382.934,344.335,384.827,344.946,387.489,344.946z"/>
	<path fill="#3698B0" d="M89.904,389.487c-2.618,0-4.686-0.479-6.202-1.44c-1.517-0.96-2.58-2.465-3.191-4.516l1.407-0.557
		c0.633,1.964,1.565,3.295,2.798,3.993c1.232,0.699,2.973,1.047,5.22,1.047c2.487,0,4.341-0.442,5.563-1.326
		c1.222-0.883,1.833-2.23,1.833-4.042c0-1.833-0.507-3.153-1.521-3.96c-1.015-0.807-2.984-1.483-5.908-2.029
		c-3.36-0.589-5.678-1.412-6.954-2.471c-1.276-1.058-1.915-2.602-1.915-4.631c0-2.029,0.747-3.633,2.242-4.811
		c1.494-1.178,3.583-1.767,6.267-1.767c2.116,0,3.862,0.431,5.236,1.292c1.375,0.862,2.476,2.209,3.306,4.042l-1.407,0.589
		c-0.786-1.658-1.751-2.814-2.896-3.469c-1.146-0.654-2.559-0.981-4.238-0.981c-2.335,0-4.074,0.409-5.22,1.227
		c-1.146,0.818-1.718,2.067-1.718,3.748c0,1.702,0.518,2.94,1.555,3.714c1.036,0.775,3.048,1.435,6.038,1.98
		c3.316,0.589,5.591,1.435,6.824,2.536c1.232,1.102,1.849,2.766,1.849,4.991c0,2.073-0.774,3.731-2.323,4.975
		C94.998,388.866,92.784,389.487,89.904,389.487z"/>
	<path fill="#3698B0" d="M108.492,389.291v-1.473h6.545v-23.236h-6.545v-1.473h14.728v1.473h-6.545v23.236h6.545v1.473H108.492z"/>
	<path fill="#3698B0" d="M142.856,389.618c-3.295,0-5.728-0.834-7.298-2.503s-2.356-3.965-2.356-6.889v-7.92
		c0-2.967,0.736-5.296,2.209-6.987c1.473-1.69,3.856-2.537,7.151-2.537c2.989,0,5.138,0.595,6.447,1.784
		c1.309,1.189,2.04,3.082,2.193,5.678l-1.636,0.196c-0.175-2.116-0.699-3.676-1.571-4.68c-0.873-1.003-2.695-1.505-5.466-1.505
		c-2.662,0-4.609,0.638-5.842,1.915c-1.233,1.276-1.849,3.322-1.849,6.136v7.92c0,2.771,0.638,4.784,1.915,6.038
		c1.276,1.255,3.311,1.882,6.104,1.882c2.684,0,4.582-0.73,5.694-2.193c1.113-1.461,1.669-3.949,1.669-7.461h-8.018v-1.473h9.655
		v1.44c0,3.644-0.677,6.415-2.029,8.312C148.473,388.669,146.15,389.618,142.856,389.618z"/>
	<path fill="#3698B0" d="M177.284,389.291l-14.531-23.4v23.4h-1.571v-26.182h1.702l14.727,23.792v-23.792h1.571v26.182H177.284z"/>
	<path fill="#3698B0" d="M227.225,389.291l-5.957-18l-6.021,18h-1.636l-5.171-26.182h1.505l4.712,23.792l5.793-17.575h1.734
		l5.728,17.378l4.516-23.596h1.604l-5.171,26.182H227.225z"/>
	<path fill="#3698B0" d="M250.854,389.618c-2.989,0-5.236-0.763-6.742-2.291c-1.505-1.527-2.258-3.895-2.258-7.102v-7.92
		c0-3.251,0.758-5.651,2.274-7.2c1.517-1.549,3.769-2.324,6.758-2.324c2.967,0,5.204,0.775,6.709,2.324
		c1.506,1.549,2.258,3.949,2.258,7.2v7.92c0,3.207-0.752,5.575-2.258,7.102C256.091,388.855,253.843,389.618,250.854,389.618z
		 M250.854,388.146c2.662,0,4.554-0.61,5.678-1.833c1.124-1.222,1.686-3.251,1.686-6.087v-7.92c0-2.88-0.562-4.942-1.686-6.186
		c-1.124-1.244-3.017-1.865-5.678-1.865c-2.662,0-4.555,0.622-5.678,1.865c-1.124,1.244-1.686,3.306-1.686,6.186v7.92
		c0,2.836,0.562,4.866,1.686,6.087C246.3,387.535,248.192,388.146,250.854,388.146z"/>
	<path fill="#3698B0" d="M299.453,376.2v13.091h-1.636v-26.182h1.636v11.618h2.75l10.112-11.618h2.16l-10.669,12.174l10.571,14.007
		h-2.062L302.53,376.2H299.453z"/>
	<path fill="#3698B0" d="M331.919,389.487c-2.618,0-4.686-0.479-6.202-1.44c-1.517-0.96-2.58-2.465-3.191-4.516l1.407-0.557
		c0.633,1.964,1.565,3.295,2.798,3.993c1.232,0.699,2.973,1.047,5.22,1.047c2.487,0,4.341-0.442,5.563-1.326
		c1.222-0.883,1.833-2.23,1.833-4.042c0-1.833-0.507-3.153-1.521-3.96c-1.015-0.807-2.984-1.483-5.908-2.029
		c-3.36-0.589-5.678-1.412-6.954-2.471c-1.276-1.058-1.915-2.602-1.915-4.631c0-2.029,0.747-3.633,2.242-4.811
		c1.494-1.178,3.583-1.767,6.267-1.767c2.116,0,3.862,0.431,5.236,1.292c1.375,0.862,2.476,2.209,3.306,4.042l-1.407,0.589
		c-0.786-1.658-1.751-2.814-2.896-3.469c-1.146-0.654-2.559-0.981-4.238-0.981c-2.335,0-4.074,0.409-5.22,1.227
		c-1.146,0.818-1.718,2.067-1.718,3.748c0,1.702,0.518,2.94,1.555,3.714c1.036,0.775,3.048,1.435,6.038,1.98
		c3.316,0.589,5.591,1.435,6.824,2.536c1.232,1.102,1.849,2.766,1.849,4.991c0,2.073-0.774,3.731-2.323,4.975
		C337.013,388.866,334.799,389.487,331.919,389.487z"/>
	<path fill="#3698B0" d="M387.489,389.618c-2.989,0-5.236-0.763-6.742-2.291c-1.505-1.527-2.258-3.895-2.258-7.102v-7.92
		c0-3.251,0.758-5.651,2.274-7.2c1.517-1.549,3.769-2.324,6.758-2.324c2.967,0,5.204,0.775,6.709,2.324
		c1.506,1.549,2.258,3.949,2.258,7.2v7.92c0,3.207-0.752,5.575-2.258,7.102C392.725,388.855,390.478,389.618,387.489,389.618z
		 M387.489,388.146c2.662,0,4.554-0.61,5.678-1.833c1.124-1.222,1.686-3.251,1.686-6.087v-7.92c0-2.88-0.562-4.942-1.686-6.186
		c-1.124-1.244-3.017-1.865-5.678-1.865c-2.662,0-4.555,0.622-5.678,1.865c-1.124,1.244-1.686,3.306-1.686,6.186v7.92
		c0,2.836,0.562,4.866,1.686,6.087C382.934,387.535,384.827,388.146,387.489,388.146z"/>
	<path fill="#3698B0" d="M406.47,389.291v-26.182h8.378c2.378,0,4.194,0.589,5.449,1.767c1.254,1.178,1.882,2.891,1.882,5.138v3.208
		c0,2.247-0.627,3.96-1.882,5.138c-1.255,1.178-3.082,1.767-5.481,1.767h-6.709v9.164H406.47z M408.107,378.655h6.709
		c2.029,0,3.49-0.426,4.385-1.276c0.895-0.851,1.342-2.258,1.342-4.222v-3.011c0-1.963-0.447-3.382-1.342-4.254
		c-0.895-0.873-2.356-1.309-4.385-1.309h-6.709V378.655z"/>
</g>
</svg>
