<?xml version="1.0" encoding="utf-8"?>
<!-- Generator: Adobe Illustrator 17.0.2, SVG Export Plug-In . SVG Version: 6.00 Build 0)  -->
<!DOCTYPE svg PUBLIC "-//W3C//DTD SVG 1.1//EN" "http://www.w3.org/Graphics/SVG/1.1/DTD/svg11.dtd">
<svg version="1.1" id="Layer_1" xmlns="http://www.w3.org/2000/svg" xmlns:xlink="http://www.w3.org/1999/xlink" x="0px" y="0px"
	 width="450px" height="128px" viewBox="0 0 450 128" enable-background="new 0 0 450 128" xml:space="preserve">
<g>
	<path fill="#3698B0" d="M54.226,82.636c-1.79,3.691-4.138,6.151-7.158,7.494c-6.375,2.908-15.155,1.174-15.603-3.579
		c-0.503-5.201,7.605-8.612,15.994-7.83c0.615-1.957,1.174-4.306,1.622-7.158c2.069-14.037-0.167-20.412,2.573-23.991
		c3.579-4.53,9.787-1.398,9.787,0.895c0,0-2.685,2.628-3.635,17.616c-0.335,5.648-1.23,10.402-2.517,14.093
		c6.319,0.392,12.471-4.194,14.876-16.665c2.628-13.478-1.51-20.636-12.303-20.636c-7.662,0-15.938,3.355-17.784,9.563
		c-1.678,5.816,4.474,7.941,7.997,6.487c0,0,1.51,9.228-4.753,9.116c-6.04-0.112-11.353-6.431-8.836-15.323
		c2.796-9.898,15.77-13.925,25.557-13.925c12.248,0,23.544,7.55,20.524,23.432C77.546,77.603,65.187,84.258,54.226,82.636z
		 M46.676,80.902c-5.033-0.615-8.5,1.286-7.885,4.474C39.183,87.613,43.545,88.117,46.676,80.902z"/>
	<path fill="#3698B0" d="M90.077,74.695c4.753-2.125,7.046-13.254,4.753-13.869c-2.237-0.671-4.642,4.978-5.648,8.836
		c-1.23,4.642-1.845,10.961,2.573,11.856c4.697,0.951,10.29-2.852,11.967-7.494c0,0,0-0.056,0.056-0.056
		c1.062-0.335,1.901,0.392,1.23,2.181c-2.292,5.816-9.395,10.178-16.665,8.612c-4.25-0.951-9.842-6.319-8.389-14.261
		c1.51-7.941,8.277-13.31,15.547-12.023c10.905,2.013,9.675,13.254-5.537,18.343C89.909,76.82,87.896,75.645,90.077,74.695z"/>
	<path fill="#3698B0" d="M106.128,65.02c-1.622-1.51-2.908-3.523-2.461-5.592c0.448-2.237,5.705-5.984,6.879-4.753
		c0.895,0.895,1.118,4.026,0.783,6.263c0,0.056-0.056,0.056-0.056,0.056L112,61.329c4.809,2.628,9.73,6.096,10.234,11.688
		c1.845-1.174,3.299-2.572,4.083-4.753c0,0,0,0,0.112,0c1.006-0.392,1.901,0.392,1.174,2.125c-1.119,2.74-3.132,4.586-5.537,5.928
		c-1.79,8.724-11.408,14.092-15.379,11.52c-3.355-2.181-2.125-7.605,3.02-9.898l2.796-1.119c-0.056-3.747-1.23-7.717-3.131-9.395
		c-1.454,3.412-3.3,6.655-4.978,9.898c-0.839,1.678-2.013,1.51-2.349,0.503c-0.056-0.056-0.056-0.056-0.056-0.056
		C103.611,74.695,105.401,69.046,106.128,65.02z M112.279,79.672c-0.895,0.28-1.678,0.503-2.405,0.727
		c-2.628,0.951-3.579,4.642-1.565,5.48c1.398,0.56,2.964-1.398,3.858-5.312L112.279,79.672z"/>
	<path fill="#3698B0" d="M138.621,73.968c1.006-0.391,1.901,0.392,1.23,2.181c-2.125,5.312-5.984,9.73-10.346,8.612
		c-4.194-1.119-6.655-8.78-4.53-17.728c1.622-6.934,7.997-10.29,12.639-7.046c0,0-2.237,2.405-4.25,10.514
		c-1.398,5.648-2.069,10.682-0.392,11.017c1.79,0.392,4.139-3.523,5.592-7.55H138.621z M135.154,53.947
		c-3.076-0.615-4.642-3.691-4.138-5.984c0.727-3.355,4.194-5.089,7.661-3.971c3.523,1.119,4.474,4.474,3.188,6.991
		C140.802,53.108,137.95,54.451,135.154,53.947z"/>
	<path fill="#3698B0" d="M153.329,60.266c2.628-2.796,6.487-2.517,8.724-0.28c0,0-2.181,2.405-3.411,10.961
		c-0.783,5.256-1.846,9.898-3.244,13.869c6.823,0.951,12.247,4.027,14.428,6.879c0,0-0.056,0.224-0.056,0.279
		c-0.615,6.487-3.467,10.849-4.194,9.507c-3.132-6.319-6.375-12.191-11.073-14.037c-3.02,7.718-6.99,12.639-11.352,14.149
		c-5.593,1.957-10.625-1.678-8.78-7.606c1.454-4.642,7.103-8.165,13.534-9.171l0.783-4.809c-0.951,2.069-2.349,3.803-4.921,3.97
		c-4.642,0.336-8.333-5.704-6.878-13.478c1.51-8.165,8.221-13.254,14.373-11.408C152.043,59.316,152.77,59.707,153.329,60.266z
		 M147.401,87.669c-2.573,1.342-4.138,3.971-4.977,6.487c-1.119,3.244-0.951,5.816,0.447,5.425
		C144.549,99.021,145.724,96.505,147.401,87.669z M150.142,70.892c0.28-1.678,0.503-3.355,0.783-5.201
		c0.224-1.398,0.56-2.573,1.119-3.579c-0.335-0.168-0.727-0.224-1.174-0.28c-2.685-0.168-4.25,3.971-5.257,7.829
		c-1.119,4.25-1.846,9.731-0.112,10.234C147.066,80.343,148.408,77.659,150.142,70.892z"/>
	<path fill="#3698B0" d="M165.075,57.918c3.691-2.405,8.948,1.23,9.003,1.342c-0.056,0.056-1.174,1.118-2.237,7.494
		c3.971-7.326,7.158-10.234,10.682-9.004c2.572,0.895,3.858,5.369,1.957,13.198c-2.125,8.948-3.859,14.092-2.517,14.596
		c1.23,0.447,2.74-0.895,3.859-4.138c0,0,0.056-0.056,0.112-0.056c1.007-0.391,1.901,0.392,1.23,2.125
		c-2.069,5.257-5.928,7.158-9.116,5.76c-3.132-1.342-5.201-6.878-2.46-17.168c1.733-6.655,2.628-8.948,1.51-9.395
		c-1.062-0.28-2.684,2.349-6.096,10.625c-1.566,10.514-4.865,12.08-8.948,10.514c0,0-0.167-0.727-0.167-2.628
		C161.832,68.264,161.552,60.266,165.075,57.918z"/>
	<path fill="#3698B0" d="M216.918,76.596c-1.174-4.194-1.733-9.73-1.174-16.273c0.839-9.228,4.362-15.267,7.997-17.616
		c4.25-2.74,11.409-2.125,8.836,10.57c-1.006,4.977-4.25,12.303-8.333,18.734c-0.056,5.984,0.615,10.793,2.181,11.073
		c5.984,1.23,14.205-18.846,12.75-43.173c0,0,0-0.056,0.056-0.056c3.244-1.845,12.471-0.615,12.136,4.418
		c-1.287,19.797-18.679,44.962-28.409,41.104c-1.79-0.671-3.523-2.517-4.81-5.425c-3.355,3.523-6.878,5.76-10.01,5.648
		c-6.99-0.392-9.339-7.494-9.339-14.093c0-10.625,2.573-25.11,6.375-30.143c3.803-5.033,10.458-1.454,10.458,0.895
		c0,0-4.977,8.444-7.102,28.409c-0.503,4.362-0.168,10.122,1.845,10.681C211.717,81.797,214.177,79.784,216.918,76.596z
		 M225.53,58.589c-0.392,2.293-0.727,4.698-0.951,7.158c2.573-4.418,4.698-8.892,5.537-12.359c0.783-3.355,0.503-5.537-1.007-5.257
		C227.599,48.411,226.649,52.661,225.53,58.589z"/>
	<path fill="#3698B0" d="M261.547,57.638c0.224-0.167,0.392-0.335,0.615-0.447c2.517-1.678,5.928,0.224,7.046,5.369
		c2.74,0.167,5.648,0.112,8.668-1.342c0,0,0.056,0.056,0.112,0.056c0.951,0.391,1.062,1.622-0.671,2.349
		c-1.957,0.895-4.809,1.901-7.717,2.293c0,1.286-0.056,2.684-0.28,4.194c-1.006,6.655-5.872,16.218-14.596,15.267
		c-6.935-0.615-10.514-5.984-9.451-14.037c1.062-8.276,8.892-14.26,15.771-13.757C261.212,57.638,261.38,57.638,261.547,57.638z
		 M260.317,59.539c-2.517,0.615-4.977,4.921-5.816,10.514c-0.783,4.921,0.335,8.78,3.97,9.004c3.412,0.224,6.319-3.3,7.158-8.892
		c0.224-1.398,0.224-2.852,0.056-4.138c-0.392,0-0.839-0.056-1.286-0.168C260.933,65.132,259.479,62.056,260.317,59.539z"/>
	<path fill="#3698B0" d="M283.862,58.757c0,0-1.174,0.895-2.237,6.99c3.635-7.438,6.543-9.003,9.674-8.5
		c2.908,0.503,5.816,3.076,2.405,10.178c-2.852,6.04-9.954,2.181-9.619,0.839c2.684-2.74,4.642-6.767,3.299-7.27
		c-1.398-0.392-3.076,2.908-6.71,11.744c-1.566,10.793-5.257,13.142-10.402,10.793c0,0,0.671-0.951,0.895-2.852
		c1.342-12.75,0.56-20.916,4.083-23.208C278.997,54.954,283.862,58.757,283.862,58.757z"/>
	<path fill="#3698B0" d="M300.417,45.167c3.858-4.921,10.514,0.895,10.514,0.895s-5.201,5.76-7.158,24.383
		c0.727-0.335,1.79-0.447,2.852-0.28c0.951-3.635,1.51-9.842,3.747-12.527c3.859-4.865,10.625,2.237,10.625,2.237
		s-2.572,1.119-5.704,7.997c-1.062,2.237-2.349,3.971-3.747,5.313l0.28,0.671c0.727,2.293,1.678,6.319,3.859,6.767
		c2.181,0.503,5.816-2.684,7.158-6.599h0.112c1.006-0.392,1.901,0.392,1.23,2.181c-2.181,5.425-7.773,9.787-11.52,9.228
		c-3.523-0.447-6.263-3.299-8.277-9.563c-0.503-0.112-0.895-0.335-1.286-0.503c-1.622,8.724-4.865,9.954-8.612,8.444
		c0,0-0.224-0.727-0.224-2.628C294.377,62.839,296.614,50.033,300.417,45.167z"/>
	<path fill="#3698B0" d="M324.858,65.02c-1.622-1.51-2.908-3.523-2.461-5.592c0.448-2.237,5.705-5.984,6.879-4.753
		c0.895,0.895,1.118,4.026,0.783,6.263c0,0.056-0.056,0.056-0.056,0.056l0.727,0.335c4.809,2.628,9.73,6.096,10.234,11.688
		c1.845-1.174,3.299-2.572,4.083-4.753c0,0,0,0,0.112,0c1.006-0.392,1.901,0.392,1.174,2.125c-1.119,2.74-3.132,4.586-5.537,5.928
		c-1.79,8.724-11.408,14.092-15.379,11.52c-3.355-2.181-2.125-7.605,3.02-9.898l2.796-1.119c-0.056-3.747-1.23-7.717-3.131-9.395
		c-1.454,3.412-3.3,6.655-4.978,9.898c-0.839,1.678-2.013,1.51-2.349,0.503c-0.056-0.056-0.056-0.056-0.056-0.056
		C322.341,74.695,324.13,69.046,324.858,65.02z M331.009,79.672c-0.895,0.28-1.678,0.503-2.405,0.727
		c-2.628,0.951-3.579,4.642-1.565,5.48c1.398,0.56,2.964-1.398,3.858-5.312L331.009,79.672z"/>
	<path fill="#3698B0" d="M351.814,73.577c-1.733,10.234-4.809,11.8-8.78,10.234c0,0-0.28-0.783-0.28-2.685
		c0-7.549,0.895-16.106,2.181-24.215c-11.744,3.971-18.958-5.424-13.646-15.882c7.55-14.819,31.765-23.711,26.564-2.852
		c-0.839,3.3-1.51,6.319-2.069,9.283c5.201-2.181,11.408-3.803,17.168-1.957c7.214,2.349,5.089,11.073,1.901,13.421
		c0,0-1.286-3.355-7.046-5.033c-4.138-1.175-8.444-2.014-12.974-1.007c-0.783,4.362-1.398,8.78-2.013,13.701
		c3.635-7.214,7.55-9.115,10.402-8.444c2.349,0.671,4.082,4.977,2.181,12.807c-1.174,5.089-2.517,9.674-0.727,10.066
		s4.81-3.02,6.264-7.046h0.056c1.006-0.335,1.901,0.392,1.23,2.181c-2.181,5.425-6.823,9.228-10.625,8.78
		c-3.858-0.503-7.102-5.312-5.089-12.862c1.733-6.655,2.293-8.668,1.174-8.892C356.623,62.895,355.225,65.132,351.814,73.577z
		 M345.662,52.269c1.23-6.543,2.572-12.527,3.971-17.28c2.628-9.339-4.642-7.438-10.123,3.971
		C336.043,46.062,336.77,55.905,345.662,52.269z"/>
	<path fill="#3698B0" d="M386.152,57.638c0.224-0.167,0.392-0.335,0.615-0.447c2.517-1.678,5.928,0.224,7.046,5.369
		c2.74,0.167,5.648,0.112,8.668-1.342c0,0,0.056,0.056,0.112,0.056c0.951,0.391,1.062,1.622-0.671,2.349
		c-1.957,0.895-4.809,1.901-7.717,2.293c0,1.286-0.056,2.684-0.28,4.194c-1.006,6.655-5.872,16.218-14.596,15.267
		c-6.935-0.615-10.514-5.984-9.451-14.037c1.062-8.276,8.892-14.26,15.771-13.757C385.817,57.638,385.985,57.638,386.152,57.638z
		 M384.922,59.539c-2.517,0.615-4.978,4.921-5.816,10.514c-0.783,4.921,0.335,8.78,3.97,9.004c3.412,0.224,6.319-3.3,7.158-8.892
		c0.224-1.398,0.224-2.852,0.056-4.138c-0.392,0-0.839-0.056-1.286-0.168C385.538,65.132,384.084,62.056,384.922,59.539z"/>
	<path fill="#3698B0" d="M404.553,67.201c0.951-3.467,2.404-8.165,6.767-8.5c4.698-0.335,8.333,5.704,6.935,13.422
		c-1.566,8.165-8.389,13.254-14.54,11.464c-0.224-0.056-0.392-0.112-0.615-0.168c-1.007,6.767-2.573,11.8-4.53,14.316
		c-3.859,4.977-10.57-0.783-10.57-0.783s6.711-5.872,7.214-24.998c0.392-12.694,4.921-15.491,9.283-13.813
		c0,0,0.168,0.727,0.168,2.684L404.553,67.201z M403.49,80.79c0.224,0.056,0.391,0.056,0.559,0.056
		c2.74,0.112,4.083-4.027,5.033-7.83c1.174-4.25,1.79-9.283,0-9.787c-1.622-0.447-3.02,2.181-4.866,9.843
		C404.049,75.869,403.826,78.386,403.49,80.79z"/>
</g>
</svg>
